<svg xmlns="http://www.w3.org/2000/svg" width="600" height="600" viewBox="0 0 600 600" version="1.1"><path d="M 238.083 72.917 C 237.029 73.971, 235.936 74.602, 235.653 74.320 C 234.513 73.180, 230.657 82.913, 228.952 91.234 C 227.954 96.105, 226.633 107.158, 226.017 115.795 C 223.523 150.738, 222.911 156.400, 220.507 166.732 C 219.130 172.654, 216.560 182.165, 214.797 187.866 C 211.095 199.842, 212.060 198.944, 192.156 208.922 L 180 215.015 179.978 210.258 C 179.952 204.573, 177.001 197.604, 173.232 194.325 C 167.605 189.429, 162.429 188.793, 131.190 189.162 C 102.753 189.497, 102.460 189.522, 98 192 C 94.594 193.892, 92.832 195.820, 90.750 199.929 L 88 205.359 88.006 326.429 C 88.009 406.626, 88.360 448.756, 89.044 451.219 C 90.426 456.193, 94.527 460.880, 99.459 463.120 C 103.097 464.773, 106.544 464.956, 134 464.956 C 167.928 464.956, 169.747 464.654, 175.253 458.111 C 177.745 455.149, 179.977 449.454, 179.998 446 C 180.003 445.175, 180.857 445.894, 181.896 447.598 C 184.677 452.158, 190.308 457.307, 195.727 460.245 C 202.844 464.103, 211.235 465.904, 227.170 466.992 C 243.519 468.108, 332.703 468.327, 368.856 467.340 L 393.035 466.679 399.107 458.191 C 402.446 453.522, 405.572 448.757, 406.053 447.601 C 407.698 443.647, 411.105 425.555, 410.587 423.526 C 410.302 422.412, 407.518 419.475, 404.400 417 L 398.731 412.500 407.615 411.914 C 417.375 411.270, 421.334 410.349, 420.456 408.928 C 420.140 408.418, 420.542 408, 421.348 408 C 424.138 408, 431.864 386.397, 434.564 371.046 C 436.726 358.749, 436.038 356.107, 429.019 349.755 L 423.212 344.500 430.773 344.500 C 435.952 344.500, 438.465 344.104, 438.752 343.244 C 438.982 342.553, 439.533 342.212, 439.977 342.485 C 441.244 343.269, 447.659 335.607, 450.609 329.786 C 452.083 326.879, 455.102 319.775, 457.319 314 C 460.968 304.494, 461.357 302.599, 461.425 293.982 C 461.491 285.562, 461.240 284.133, 459.250 281.597 C 458.012 280.020, 457 279.048, 457 279.437 C 457 279.825, 456.325 279.468, 455.500 278.643 C 453.459 276.602, 453.575 276.335, 456.776 275.695 C 461.558 274.738, 474.400 263.807, 476.840 258.616 C 478.028 256.089, 479 253.567, 479 253.011 C 479 252.455, 479.450 252, 480 252 C 481.344 252, 481.300 229.620, 479.946 224.746 C 478.611 219.936, 474.787 216.422, 468.684 214.395 C 463.155 212.559, 463.240 212.559, 396.500 214.009 C 371.200 214.559, 331.719 215.202, 308.764 215.439 L 267.028 215.869 268.650 212.184 C 283.654 178.098, 288.928 159.289, 289.747 136.950 C 290.332 120.992, 288.499 111.706, 282.277 99.114 C 274.382 83.137, 258.664 71, 245.866 71 C 241.418 71, 239.537 71.463, 238.083 72.917 M 102.020 196.752 C 100.106 197.713, 97.518 200.029, 96.270 201.898 L 94 205.296 94 326.680 C 94 460.314, 93.652 452.988, 100.190 456.974 C 103.319 458.882, 105.169 458.993, 134 458.993 C 162.831 458.993, 164.681 458.882, 167.810 456.974 C 174.347 452.989, 174 460.289, 174 326.933 C 174 190.908, 174.570 200.907, 166.591 197.044 C 162.641 195.132, 160.531 195, 133.934 195.002 C 108.859 195.003, 105.089 195.210, 102.020 196.752" stroke="none" fill="#fffcfc" fill-rule="evenodd"/></svg>