<svg xmlns="http://www.w3.org/2000/svg" width="600" height="600" viewBox="0 0 600 600" version="1.1"><path d="M 224.911 133.076 C 202.354 134.606, 189.124 140.550, 181.896 152.402 C 180.857 154.106, 180.003 154.825, 179.998 154 C 179.977 150.546, 177.745 144.851, 175.253 141.889 C 169.747 135.346, 167.928 135.044, 134 135.044 C 106.544 135.044, 103.097 135.227, 99.459 136.880 C 94.527 139.120, 90.426 143.807, 89.044 148.781 C 88.360 151.244, 88.009 193.374, 88.006 273.571 L 88 394.641 90.750 400.071 C 92.832 404.180, 94.594 406.108, 98 408 C 102.460 410.478, 102.753 410.503, 131.190 410.838 C 162.429 411.207, 167.605 410.571, 173.232 405.675 C 177.001 402.396, 179.952 395.427, 179.978 389.742 L 180 384.985 192.156 391.078 C 212.060 401.056, 211.095 400.158, 214.797 412.134 C 216.560 417.835, 219.130 427.346, 220.507 433.268 C 222.911 443.600, 223.523 449.262, 226.017 484.205 C 226.633 492.842, 227.954 503.895, 228.952 508.766 C 230.657 517.087, 234.513 526.820, 235.653 525.680 C 235.936 525.398, 237.029 526.029, 238.083 527.083 C 239.537 528.537, 241.418 529, 245.866 529 C 258.664 529, 274.382 516.863, 282.277 500.886 C 288.499 488.294, 290.332 479.008, 289.747 463.050 C 288.928 440.711, 283.654 421.902, 268.650 387.816 L 267.028 384.131 308.764 384.561 C 331.719 384.798, 371.200 385.441, 396.500 385.991 C 463.240 387.441, 463.155 387.441, 468.684 385.605 C 474.787 383.578, 478.611 380.064, 479.946 375.254 C 481.300 370.380, 481.344 348, 480 348 C 479.450 348, 479 347.545, 479 346.989 C 479 346.433, 478.028 343.911, 476.840 341.384 C 474.400 336.193, 461.558 325.262, 456.776 324.305 C 453.575 323.665, 453.459 323.398, 455.500 321.357 C 456.325 320.532, 457 320.175, 457 320.563 C 457 320.952, 458.013 319.980, 459.250 318.403 C 461.240 315.867, 461.491 314.438, 461.425 306.018 C 461.357 297.401, 460.968 295.506, 457.319 286 C 455.102 280.225, 452.083 273.121, 450.609 270.214 C 447.659 264.393, 441.244 256.731, 439.977 257.515 C 439.533 257.788, 438.982 257.447, 438.752 256.756 C 438.465 255.896, 435.952 255.500, 430.773 255.500 L 423.212 255.500 429.019 250.245 C 436.038 243.893, 436.726 241.251, 434.564 228.954 C 431.864 213.603, 424.138 192, 421.348 192 C 420.542 192, 420.140 191.582, 420.456 191.072 C 421.334 189.651, 417.375 188.730, 407.615 188.086 L 398.731 187.500 404.400 183 C 407.518 180.525, 410.302 177.588, 410.587 176.474 C 411.105 174.445, 407.698 156.353, 406.053 152.399 C 405.572 151.243, 402.446 146.478, 399.107 141.809 L 393.035 133.321 368.856 132.660 C 337.088 131.793, 239.679 132.074, 224.911 133.076 M 222.011 139.138 C 206.547 140.406, 197.454 143.765, 190.805 150.665 C 186.862 154.756, 183.058 162.095, 183.022 165.679 C 183.010 166.877, 182.325 168.532, 181.500 169.357 C 180.186 170.671, 180 183.728, 180 274.696 L 180 378.534 193.559 385.292 C 213.005 394.983, 214.759 396.232, 217.580 402.395 C 220.625 409.046, 227.520 435.962, 228.878 446.500 C 229.445 450.900, 230.401 462.825, 231.002 473 C 232.983 506.509, 236.123 520.801, 241.951 522.833 C 252.210 526.409, 269.199 514.383, 277.231 497.858 C 282.387 487.252, 284.342 478.444, 284.302 466 C 284.236 445.678, 277.831 422.312, 263.789 391.159 C 259.763 382.227, 258.962 379.641, 260.020 378.988 C 261.531 378.054, 293.237 378.321, 393 380.108 C 430.675 380.783, 463.255 381.002, 465.400 380.594 C 467.614 380.174, 470.533 378.621, 472.150 377.003 C 474.959 374.195, 475 373.986, 475 362.423 C 475 347.457, 473.033 342.563, 464.339 335.902 C 456.415 329.831, 454.975 329.076, 451.250 329.035 C 449.044 329.011, 448 328.518, 448 327.500 C 448 326.667, 447.111 326, 446 326 C 444.667 326, 444 325.333, 444 324 C 444 321.719, 447.325 318, 449.365 318 C 450.116 318, 451.916 317.067, 453.365 315.927 C 455.752 314.050, 456 313.212, 456 307.024 C 456 296.238, 447.586 273.477, 440.624 265.432 L 437.221 261.500 426.663 261.500 C 419.826 261.500, 415.683 261.080, 414.910 260.308 C 413.046 258.447, 416.238 252.800, 421.035 249.476 C 423.283 247.918, 426.274 245.275, 427.681 243.603 C 429.991 240.858, 430.180 239.997, 429.631 234.742 C 428.408 223.044, 420.900 199.043, 417.355 195.498 C 416.172 194.315, 413.015 194, 402.349 194 L 388.841 194 389.487 190.750 C 389.906 188.643, 391.594 186.269, 394.287 184 C 396.572 182.075, 399.940 179.150, 401.771 177.500 L 405.101 174.500 402.928 164.322 C 401.010 155.333, 400.151 153.290, 395.576 146.822 L 390.397 139.500 378.948 138.882 C 361.641 137.947, 233.999 138.155, 222.011 139.138 M 100.190 143.026 C 93.652 147.012, 94 139.686, 94 273.320 L 94 394.704 96.270 398.102 C 100.695 404.726, 102.171 404.997, 133.934 404.998 C 160.531 405, 162.641 404.868, 166.591 402.956 C 174.570 399.093, 174 409.092, 174 273.067 C 174 139.711, 174.347 147.011, 167.810 143.026 C 164.681 141.118, 162.831 141.007, 134 141.007 C 105.169 141.007, 103.319 141.118, 100.190 143.026" stroke="none" fill="#fffcfc" fill-rule="evenodd"/></svg>