<svg xmlns="http://www.w3.org/2000/svg" width="600" height="600" viewBox="0 0 600 600" version="1.1"><path d="M 238.083 72.917 C 237.029 73.971, 235.936 74.602, 235.653 74.320 C 232.812 71.479, 227.569 94.047, 226.017 115.795 C 223.523 150.738, 222.911 156.400, 220.507 166.732 C 213.010 198.962, 213.510 198.217, 192.156 208.922 L 180 215.015 179.978 210.258 C 179.894 192.068, 172.057 188.679, 131.190 189.162 C 97.210 189.562, 95.812 189.935, 90.750 199.929 L 88 205.359 88.006 326.429 C 88.013 481.122, 82.645 464.956, 134 464.956 C 172.802 464.956, 179.899 462.031, 179.998 446 C 180.003 445.175, 180.857 445.894, 181.896 447.598 C 193.914 467.306, 230.121 471.129, 368.856 467.340 L 393.035 466.679 399.107 458.191 C 406.427 447.957, 406.399 448.021, 409.016 435.526 C 411.589 423.241, 411.422 422.574, 404.400 417 L 398.731 412.500 407.615 411.914 C 417.375 411.270, 421.334 410.349, 420.456 408.928 C 420.140 408.418, 420.542 408, 421.348 408 C 424.138 408, 431.864 386.397, 434.564 371.046 C 436.726 358.749, 436.038 356.107, 429.019 349.755 L 423.212 344.500 430.773 344.500 C 435.952 344.500, 438.465 344.104, 438.752 343.244 C 438.982 342.553, 439.533 342.212, 439.977 342.485 C 441.244 343.269, 447.659 335.607, 450.609 329.786 C 461.064 309.160, 464.750 288.604, 459.250 281.597 C 458.012 280.020, 457 279.048, 457 279.437 C 457 279.825, 456.325 279.468, 455.500 278.643 C 453.459 276.602, 453.575 276.335, 456.776 275.695 C 463.988 274.252, 479 258.930, 479 253.011 C 479 252.455, 479.450 252, 480 252 C 483.783 252, 480.440 222.416, 476.213 218.497 C 469.528 212.298, 471.123 212.388, 396.500 214.009 C 371.200 214.559, 331.719 215.202, 308.764 215.439 L 267.028 215.869 268.650 212.184 C 296.133 149.750, 297.192 111.322, 272.163 84.790 C 260.979 72.934, 243.986 67.014, 238.083 72.917 M 241.852 77.183 C 236.143 79.157, 232.969 93.732, 231.002 127 C 229.540 151.753, 228.545 158.760, 223.918 176.922 C 217.191 203.326, 217.722 202.666, 193.559 214.708 L 180 221.466 180 325.304 C 180 416.272, 180.186 429.329, 181.500 430.643 C 182.325 431.468, 183.004 433.123, 183.010 434.321 C 183.060 445.464, 197.020 457.121, 214 460.199 C 220.882 461.446, 356.087 462.347, 375.947 461.278 L 390.393 460.500 395.575 453.178 C 400.152 446.709, 401.009 444.669, 402.928 435.678 L 405.101 425.500 401.771 422.500 C 399.940 420.850, 396.572 417.925, 394.287 416 C 391.594 413.731, 389.906 411.357, 389.487 409.250 L 388.841 406 402.349 406 C 419.245 406, 420.440 404.702, 426.927 379.290 C 431.648 360.792, 430.953 357.397, 421.035 350.524 C 410.089 342.938, 412.166 338.500, 426.663 338.500 L 437.221 338.500 440.624 334.568 C 454.846 318.133, 460.854 282, 449.365 282 C 447.325 282, 444 278.281, 444 276 C 444 274.667, 444.667 274, 446 274 C 447.111 274, 448 273.333, 448 272.500 C 448 271.482, 449.044 270.989, 451.250 270.965 C 454.975 270.924, 456.415 270.169, 464.339 264.098 C 473.033 257.437, 475 252.543, 475 237.577 C 475 217.128, 480.543 218.323, 393 219.892 C 241.242 222.610, 256.976 223.956, 263.789 208.841 C 285.909 159.769, 289.858 128.301, 277.198 102 C 269.436 85.873, 252.041 73.660, 241.852 77.183 M 102.020 196.752 C 100.106 197.713, 97.518 200.029, 96.270 201.898 L 94 205.296 94 326.680 C 94 477.512, 88.401 458.993, 134 458.993 C 168.273 458.993, 169.536 458.747, 172.560 451.510 C 174.853 446.022, 174.706 207.291, 172.407 202.445 C 168.895 195.045, 114.219 190.622, 102.020 196.752" stroke="none" fill="#fffcfc" fill-rule="evenodd"/></svg>